<svg width="800" height="600" xmlns="http://www.w3.org/2000/svg">

 <g>
  <title>Layer 1</title>
  <path stroke-width="5" d="m270.99997,257.41962c0,0 0,-1 0,-2c0,0 0,-1 0,-2c0,0 -1.4588,-1.69344 -2,-3c-0.38269,-0.92387 -1.41885,-1.41885 -3,-3c-1.58115,-1.58115 -4.38687,-2.9176 -7,-4c-3.69551,-1.53073 -8.02434,-1.50731 -13,-2c-5.0742,-0.50244 -12,-2 -18,-2c-6,0 -12.11809,0.3754 -19,2c-6.15536,1.45308 -12.89171,4.19576 -20,8c-5.91446,3.16531 -12.22733,7.78491 -16,12c-4.27039,4.77115 -6.56349,9.70251 -9,15c-2.64276,5.74594 -3.49623,10.90778 -4,15c-0.61092,4.96252 -0.45294,10.11237 1,15c1.53448,5.16193 3,9 6,13c3,4 5.74675,7.37134 10,10c3.80423,2.35114 8,4 12,4c4,0 6.86829,-0.28857 11,-2c2.92157,-1.21014 6.21167,-3.71411 9,-6c3.28101,-2.68979 5.3851,-6.37201 8,-10c2.48071,-3.4418 7,-8 11,-13c4,-5 7.76141,-12.14185 12,-19c3.79111,-6.13412 10.21811,-13.84921 15,-21c5.24417,-7.8421 8.88293,-15.07437 14,-23c3.91135,-6.05815 9.38055,-13.76305 13,-20c3.36703,-5.80199 6.83179,-12.52214 10,-18.99998c2.77872,-5.68144 5.43289,-12.80243 8,-19c2.42029,-5.84312 5.99982,-12.59692 8,-19c2.10837,-6.74944 4.08075,-11.98453 5,-17c1.09662,-5.98309 2.88135,-10.02521 4,-15c0.90457,-4.02266 1.84723,-7.04132 3,-11c0.88412,-3.03616 1.95517,-4.54916 3,-8c0.57956,-1.91418 0.83981,-5.01291 1,-6c0.50653,-3.12144 0.23462,-5.15224 1,-7c0.5412,-1.30656 2,-3 2,-3c0,-1 0,-2 0,-3c0,-1 0,-2 0,-2c0,0 -0.34619,0.70546 -2,3c-1.30746,1.814 -2.07193,4.95327 -4,8c-3.1181,4.92722 -5.34457,8.74283 -9,14c-3.3288,4.7874 -7,10 -11,16c-4,6 -7.40619,11.78304 -11,19c-3.39478,6.81729 -5.9534,12.02016 -9,19c-3.93991,9.02646 -6.29349,14.88138 -9,22c-2.24762,5.9117 -3.21655,12.13747 -5,20c-1.39905,6.16786 -2.75519,13.03056 -4,21.99998c-0.83618,6.02501 -1,13 -1,21c0,7 -0.38712,14.01071 0,21c0.50076,9.04153 1.5253,17.08441 3,24c1.51831,7.12003 3.92554,11.62061 6,18c1.88107,5.78461 3,11 6,16c3,5 6.22021,9.79489 9,13c3.276,3.77728 6.05664,6.91754 9,9c4.0817,2.88785 7.62061,4.92554 14,7c5.78461,1.88107 14.13748,2.21655 22,4c6.16788,1.39905 14,3 20,4c6,1 13,1 18,1c5,0 10,0 16,0c6,0 12,0 21,-1c9,-1 19.01797,-3.90359 30,-6c10.01715,-1.9122 20.00565,-4.94507 30,-6c9.00537,-0.95053 18.06079,-2.51276 28,-4c10.08575,-1.50919 18.78421,-4.65457 26.99997,-7c9.80627,-2.7995 17.43658,-2.5842 26,-6c5.41595,-2.16034 12.08746,-4.79395 17,-7c4.07965,-1.83203 7.06598,-3.87766 9,-5c3.11847,-1.80972 5.4505,-3.4505 8,-6c2.5495,-2.5495 4,-6 6,-10c2,-4 5,-8 8,-14c2,-4 5,-9 7,-15c2,-6 4.39899,-12.8981 6,-20c1.33765,-5.93387 3.49902,-12.95332 4,-21c0.3728,-5.9884 1,-13 1,-22c0,-7 0.2674,-14.06361 -2,-22.99998c-1.79041,-7.0565 -4.32422,-13.8858 -7,-22c-2.27997,-6.91388 -5,-15 -8,-21c-3,-6 -6,-12 -9,-17c-3,-5 -5.72961,-10.22885 -10,-15c-4.71582,-5.26885 -8,-9 -12,-13c-4,-4 -7.7265,-8.29362 -12,-12c-3.77728,-3.27601 -8.85077,-6.21005 -13,-9c-4.83881,-3.25361 -9.7699,-5.54863 -14,-7c-4.823,-1.65482 -8.82373,-3.48626 -11,-4c-3.89297,-0.91901 -7.99997,0 -10.99997,0c-3,0 -7,0 -9,1c-4,2 -6.74673,3.37135 -11,6c-3.80423,2.35114 -7.47232,5.47231 -12,10c-4.52768,4.52769 -8.76141,9.14183 -13,16c-3.79111,6.13413 -8.62042,11.43797 -14,18c-4.57175,5.57664 -6.69592,13.15939 -11,21c-2.80591,5.11145 -6.44879,12.82425 -9,20c-2.43878,6.85948 -4.51962,15.07481 -6,23c-1.51416,8.106 -3,14 -4,21.99998c-1,8 -1.49875,13.94672 -2,21c-0.49622,6.98239 0,14 0,20c0,6 0,11 0,17c0,4 0.08075,8.98453 1,14c1.09662,5.98309 1.36096,11.14221 3,17c1.45105,5.18597 2.73145,10.0769 4,14c1.65686,5.12396 2.78986,9.07843 4,12c1.71143,4.13171 3.513,6.59399 5,9c1.66251,2.69 3.19028,4.88153 5,8c1.12234,1.93399 3,4 5,7c2,3 4,5 8,9c3,3 7.22885,6.72961 12,11c4.21509,3.77267 9.50424,6.03552 14,9c3.54193,2.33554 5.80566,4.44839 10,6c3.867,1.43048 6.74707,2.617 11,4c5.78461,1.88107 9.71201,2.98163 15,4c5.89169,1.13464 10.93796,1.49829 16.99997,2c5.97955,0.49487 12.02014,1.43289 20,2c7.05328,0.50125 14,1 21,1c8,0 16.02014,0.56711 24,0c7.05328,-0.50125 15.19324,-1.98639 23,-4c5.21448,-1.345 11.24402,-3.16132 16,-5c5.43866,-2.10263 10.31,-5.33749 13,-7c3.60901,-2.2305 5.28857,-4.86829 7,-9c1.21014,-2.92157 3.513,-5.59399 5,-8c1.66254,-2.69 3.4588,-5.69345 4,-7c0.38269,-0.92389 1,-3 1,-4c0,0 0,0 0,0c-1,-1 -1,-4 -1,-7c0,-2 1,-5 2,-8l1,-3" id="svg_5" stroke="#000" fill="none"/>
 </g>
</svg>